<svg xmlns="http://www.w3.org/2000/svg" xmlns:xlink="http://www.w3.org/1999/xlink" width="17.827" height="17.151" xmlns:v="https://vecta.io/nano"><g fill="none" stroke="#000" stroke-linejoin="round" stroke-width="1.5"><path d="M1.059 8.122l8.086-7.1a1.06 1.06 0 0 1 .79-.263c3.174.15 5.927 2.243 6.92 5.261" stroke-linecap="round"/><path d="M1.059 8.123v2.852c0 .419.248.798.632.965a1.58 1.58 0 0 1-.3 2.993.42.42 0 0 0-.333.412c0 .304.131.593.36.793s.533.292.834.251l13.69-1.825c.523-.07.913-.516.913-1.044v-7.5z"/><use xlink:href="#B"/><use xlink:href="#B" x="5.266" y="-3.159"/><g stroke-linecap="round"><path d="M5.008 9.703c.145 0 .263.118.263.263s-.117.263-.262.263-.263-.117-.264-.262c0-.07.027-.137.077-.187s.116-.077.186-.077"/><use xlink:href="#C"/><use xlink:href="#C" x="-2.633" y="-3.686"/></g></g><defs ><path id="B" d="M8.167 13.915c.727 0 1.316-.589 1.316-1.316s-.589-1.316-1.316-1.316-1.316.589-1.316 1.316c0 .349.139.684.385.931s.582.385.931.385z"/><path id="C" d="M12.38 12.862c.106 0 .202.064.243.162s.018.211-.057.287-.188.098-.287.057-.162-.137-.162-.243c0-.145.118-.263.263-.263"/></defs></svg>