<svg xmlns="http://www.w3.org/2000/svg" width="17.48" height="17.479"  fill="none" stroke="#040506" stroke-linejoin="round" stroke-width="1.5" xmlns:v="https://vecta.io/nano"><path d="M13.649 1.073h0A4.32 4.32 0 0 0 8.5 3.039L6.315 6.92a2.06 2.06 0 0 0 .348 2.468l1.428 1.432a2.06 2.06 0 0 0 2.468.345l3.882-2.184a4.32 4.32 0 0 0 1.966-5.149h0c-.437-1.3-1.458-2.321-2.758-2.759z"/><path d="M6.295 13.374c-.125-.121-.262-.229-.41-.32l2.219-2.219-1.46-1.46-2.22 2.219a2.32 2.32 0 0 0-.32-.41 1.81 1.81 0 0 0-3.219.702 1.81 1.81 0 0 0 .682 1.835c.439.439 1.457.732 1.82.37-.362.362-.07 1.382.371 1.82a1.81 1.81 0 0 0 3.219-.702 1.81 1.81 0 0 0-.682-1.835z"/></svg>