<svg xmlns="http://www.w3.org/2000/svg" width="17.296" height="17.296"  fill="none" stroke="#040506" stroke-linejoin="round" stroke-width="1.5" xmlns:v="https://vecta.io/nano"><path d="M16.545 4.962h0c0-2.326-1.886-4.212-4.212-4.212H7.067A6.32 6.32 0 0 0 .748 7.069v5.792a3.69 3.69 0 0 0 3.686 3.686h0c.978 0 1.915-.388 2.606-1.08s1.08-1.629 1.08-2.606v-.527a3.16 3.16 0 0 1 3.159-3.159h1.053a4.21 4.21 0 0 0 4.213-4.213z"/><path d="M4.435 14.44a1.58 1.58 0 1 0-1.118-.462 1.58 1.58 0 0 0 1.118.462zm7.898-11.584H7.067c-2.326.001-4.211 1.886-4.212 4.212v1.053c0 .582.471 1.053 1.053 1.053h0c.582 0 1.053-.471 1.053-1.053h0c0-.582.471-1.053 1.053-1.053h6.319c1.163 0 2.106-.943 2.106-2.106h0c0-1.163-.943-2.106-2.106-2.106z"/></svg>