<svg xmlns="http://www.w3.org/2000/svg" xmlns:xlink="http://www.w3.org/1999/xlink" width="16.948" height="17.867" xmlns:v="https://vecta.io/nano"><style><![CDATA[.B{stroke-linejoin:round}.C{stroke-width:1.5}.D{stroke-linecap:round}]]></style><g fill="none" stroke="#040506" class="B C"><g class="D"><path d="M.936 15.696l3.956 1.206"/><path d="M2.914 16.302l1.209-3.965"/></g><path d="M5.841 12.34h0c-1.126.352-2.353-.022-3.091-.943h0a2.99 2.99 0 0 1-.4-3.066l3.019-7.235a.52.52 0 0 1 .63-.3l3.062.931a.52.52 0 0 1 .354.6l-1.53 7.688c-.195 1.095-.983 1.991-2.044 2.325z"/><g class="D"><path d="M3.948 4.507l4.747 1.448m-3.651.783c.068.021.125.068.159.13s.04.137.018.205c-.044.142-.193.223-.336.181a.27.27 0 0 1-.158-.13c-.033-.062-.04-.136-.019-.204.044-.142.193-.223.336-.181"/><use xlink:href="#B"/><use xlink:href="#B" x="1.611" y="1.612"/><use xlink:href="#C"/><use xlink:href="#B" x="-4.836" y="1.612"/><use xlink:href="#C" x="-6.984"/><path d="M12.054 16.934l3.961-1.187"/><path d="M14.034 16.343l-1.19-3.971"/><path d="M10.669.927l.412-.123a.52.52 0 0 1 .628.306l2.984 7.247a2.99 2.99 0 0 1-.415 3.064h0a2.87 2.87 0 0 1-3.1.931h0a2.97 2.97 0 0 1-1.657-1.322"/><path d="M11.201 5.094l1.913-.573"/></g></g><defs ><path id="B" d="M10.955 6.739c.068.021.125.068.159.13s.04.137.018.205c-.044.142-.193.223-.336.181-.068-.021-.125-.068-.159-.13s-.04-.137-.018-.205a.27.27 0 0 1 .336-.181"/><path id="C" d="M11.492 9.963c.068.021.125.067.158.13s.04.136.019.204c-.044.142-.193.223-.336.181-.068-.021-.125-.068-.159-.13s-.04-.137-.018-.205a.27.27 0 0 1 .336-.18"/></defs></svg>