<svg xmlns="http://www.w3.org/2000/svg" width="17.297" height="16.255"  fill="none" stroke="#040506" stroke-linecap="round" stroke-linejoin="round" stroke-width="1.5" xmlns:v="https://vecta.io/nano"><path d="M1.803 6.027v9.478m12.63-5.265h1.582c.29 0 .526-.235.527-.525.006-2.69.02-5.938-1.094-8.628-.095-.233-.342-.366-.589-.317s-.425.266-.424.517v14.218M.75.761v4.212c0 .582.471 1.053 1.053 1.053h0c.582 0 1.053-.471 1.053-1.053V.761m8.952 4.763c-1.799-1.931-4.784-2.145-6.841-.491m-.531 7.816a5.04 5.04 0 0 0 7.372 0"/></svg>