<svg xmlns="http://www.w3.org/2000/svg" width="17.296" height="17.297"  fill="none" stroke="#040506" xmlns:v="https://vecta.io/nano"><g stroke-linecap="round" stroke-linejoin="round" stroke-width="1.5"><path d="M16.53 8.122H8.121C4.05 8.122.749 4.821.749.75H9.7c3.78 0 6.845 3.065 6.845 6.845S13.48 14.44 9.7 14.44H4.961a3.16 3.16 0 0 1 3.159-3.159h2.106"/><path d="M10.227 14.42v-6.3c0-1.58-1.053-7.372-4.212-7.372m4.213 7.374l4.809-4.809"/><path d="M10.228 8.118l4.313 4.314M6.278 3.905c.145 0 .263.118.263.263s-.118.263-.263.263-.263-.118-.263-.263c0-.07.028-.137.077-.186s.116-.077.186-.077"/></g><path d="M4.962 14.44l-3.159-2.106v4.212l3.159-2.106z" stroke-linejoin="round" stroke-width="1.5"/></svg>