<svg xmlns="http://www.w3.org/2000/svg" width="17.302" height="17.299"  fill="none" stroke="#040506" stroke-linejoin="round" stroke-width="1.5" xmlns:v="https://vecta.io/nano"><path d="M8.508 2.727c-2.228.011-4.423 1.137-5.169 2.668a1.02 1.02 0 0 0 .224 1.155l1.785 1.784" stroke-linecap="round"/><path d="M7.16 12.348c6.017-1.062 9.993-4.165 9.311-10.619-.054-.473-.427-.846-.9-.9C9.118.147 6.014 4.122 4.952 10.14l-3.913 1.741a.52.52 0 0 0 .07.96l2.738.611.611 2.738a.52.52 0 0 0 .96.07z"/><path d="M14.577 8.793c-.011 2.228-1.137 4.423-2.668 5.169a1.02 1.02 0 0 1-1.155-.224l-1.782-1.785M4.95 10.141l2.209 2.209m4.911-8.963c.145 0 .263.118.263.263s-.118.263-.263.263-.263-.118-.263-.263c0-.07.028-.137.077-.186s.116-.077.186-.077" stroke-linecap="round"/></svg>